<mxfile host="app.diagrams.net" agent="Mozilla/5.0 (Windows NT 10.0; Win64; x64) AppleWebKit/537.36 (KHTML, like Gecko) Chrome/131.0.0.0 Safari/537.36" version="26.0.6">
  <diagram name="‫עמוד-1‬" id="bSC9z-89en8wsQj-5TWz">
    <mxGraphModel dx="1018" dy="499" grid="1" gridSize="10" guides="1" tooltips="1" connect="1" arrows="1" fold="1" page="1" pageScale="1" pageWidth="1786" pageHeight="1186" math="0" shadow="0">
      <root>
        <mxCell id="0" />
        <mxCell id="1" parent="0" />
        <mxCell id="YqH8jDD1aWY3Eqng-mzv-44" style="edgeStyle=orthogonalEdgeStyle;rounded=0;orthogonalLoop=1;jettySize=auto;html=1;exitX=0.75;exitY=1;exitDx=0;exitDy=0;entryX=0.5;entryY=0;entryDx=0;entryDy=0;endArrow=none;endFill=0;fontFamily=Verdana;" edge="1" parent="1" source="zX7RAPqxI1raDq1QODeA-1" target="YqH8jDD1aWY3Eqng-mzv-43">
          <mxGeometry relative="1" as="geometry" />
        </mxCell>
        <mxCell id="YqH8jDD1aWY3Eqng-mzv-49" style="edgeStyle=orthogonalEdgeStyle;rounded=0;orthogonalLoop=1;jettySize=auto;html=1;exitX=0.25;exitY=1;exitDx=0;exitDy=0;entryX=0.5;entryY=0;entryDx=0;entryDy=0;endArrow=none;endFill=0;fontFamily=Verdana;" edge="1" parent="1" source="zX7RAPqxI1raDq1QODeA-1" target="YqH8jDD1aWY3Eqng-mzv-47">
          <mxGeometry relative="1" as="geometry" />
        </mxCell>
        <mxCell id="wTqkR6zDhkNAXDIUtHo6-1" value="movie_id" style="ellipse;whiteSpace=wrap;html=1;align=center;fontStyle=5;fontFamily=Verdana;fontSize=12;fillColor=#dae8fc;strokeColor=#6c8ebf;" parent="1" vertex="1">
          <mxGeometry x="589.5" y="270" width="90" height="40" as="geometry" />
        </mxCell>
        <mxCell id="wTqkR6zDhkNAXDIUtHo6-6" value="votes_count" style="ellipse;whiteSpace=wrap;html=1;align=center;fontSize=12;fontFamily=Verdana;fillColor=#dae8fc;strokeColor=#6c8ebf;" parent="1" vertex="1">
          <mxGeometry x="840" y="270" width="90" height="40" as="geometry" />
        </mxCell>
        <mxCell id="YqH8jDD1aWY3Eqng-mzv-41" style="edgeStyle=orthogonalEdgeStyle;rounded=0;orthogonalLoop=1;jettySize=auto;html=1;exitX=0.5;exitY=1;exitDx=0;exitDy=0;entryX=0.5;entryY=0;entryDx=0;entryDy=0;endArrow=none;endFill=0;fontFamily=Verdana;" edge="1" parent="1" source="YqH8jDD1aWY3Eqng-mzv-40" target="YqH8jDD1aWY3Eqng-mzv-6">
          <mxGeometry relative="1" as="geometry" />
        </mxCell>
        <mxCell id="YqH8jDD1aWY3Eqng-mzv-42" style="rounded=0;orthogonalLoop=1;jettySize=auto;html=1;exitX=0.5;exitY=0;exitDx=0;exitDy=0;entryX=0.5;entryY=1;entryDx=0;entryDy=0;endArrow=none;endFill=0;fontFamily=Verdana;" edge="1" parent="1" source="YqH8jDD1aWY3Eqng-mzv-40" target="zX7RAPqxI1raDq1QODeA-1">
          <mxGeometry relative="1" as="geometry" />
        </mxCell>
        <mxCell id="YqH8jDD1aWY3Eqng-mzv-40" value="related_to" style="shape=rhombus;perimeter=rhombusPerimeter;whiteSpace=wrap;html=1;align=center;fillColor=#d5e8d4;strokeColor=#82b366;fontFamily=Verdana;rounded=0;" vertex="1" parent="1">
          <mxGeometry x="699.75" y="359" width="120" height="40" as="geometry" />
        </mxCell>
        <mxCell id="YqH8jDD1aWY3Eqng-mzv-56" style="rounded=0;orthogonalLoop=1;jettySize=auto;html=1;exitX=0.5;exitY=1;exitDx=0;exitDy=0;entryX=0.5;entryY=0;entryDx=0;entryDy=0;endArrow=none;endFill=0;fontFamily=Verdana;" edge="1" parent="1" source="YqH8jDD1aWY3Eqng-mzv-43" target="YqH8jDD1aWY3Eqng-mzv-16">
          <mxGeometry relative="1" as="geometry" />
        </mxCell>
        <mxCell id="YqH8jDD1aWY3Eqng-mzv-43" value="participates_in" style="shape=rhombus;perimeter=rhombusPerimeter;whiteSpace=wrap;html=1;align=center;fillColor=#d5e8d4;strokeColor=#82b366;fontFamily=Verdana;rounded=0;" vertex="1" parent="1">
          <mxGeometry x="950.5" y="359" width="117" height="40" as="geometry" />
        </mxCell>
        <mxCell id="YqH8jDD1aWY3Eqng-mzv-48" style="edgeStyle=orthogonalEdgeStyle;rounded=0;orthogonalLoop=1;jettySize=auto;html=1;exitX=0.5;exitY=1;exitDx=0;exitDy=0;entryX=0.5;entryY=0;entryDx=0;entryDy=0;endArrow=none;endFill=0;fontFamily=Verdana;" edge="1" parent="1" source="YqH8jDD1aWY3Eqng-mzv-47" target="YqH8jDD1aWY3Eqng-mzv-28">
          <mxGeometry relative="1" as="geometry" />
        </mxCell>
        <mxCell id="YqH8jDD1aWY3Eqng-mzv-47" value="of_genre" style="shape=rhombus;perimeter=rhombusPerimeter;whiteSpace=wrap;html=1;align=center;fillColor=#d5e8d4;strokeColor=#82b366;fontFamily=Verdana;rounded=0;" vertex="1" parent="1">
          <mxGeometry x="451.5" y="359" width="117" height="40" as="geometry" />
        </mxCell>
        <mxCell id="zX7RAPqxI1raDq1QODeA-1" value="movie" style="rounded=1;arcSize=10;whiteSpace=wrap;html=1;align=center;fontSize=14;fontFamily=Verdana;fillColor=#ffe6cc;strokeColor=#d79b00;fontStyle=1" parent="1" vertex="1">
          <mxGeometry x="710" y="270" width="100" height="40" as="geometry" />
        </mxCell>
        <mxCell id="wTqkR6zDhkNAXDIUtHo6-42" style="rounded=0;orthogonalLoop=1;jettySize=auto;html=1;exitX=1;exitY=1;exitDx=0;exitDy=0;entryX=0;entryY=0;entryDx=0;entryDy=0;endArrow=none;endFill=0;fontFamily=Verdana;fontSize=12;" parent="1" source="zX7RAPqxI1raDq1QODeA-13" target="zX7RAPqxI1raDq1QODeA-1" edge="1">
          <mxGeometry relative="1" as="geometry" />
        </mxCell>
        <mxCell id="zX7RAPqxI1raDq1QODeA-13" value="title" style="ellipse;whiteSpace=wrap;html=1;align=center;fontSize=12;fontFamily=Verdana;fillColor=#dae8fc;strokeColor=#6c8ebf;" parent="1" vertex="1">
          <mxGeometry x="589.5" y="230" width="90" height="40" as="geometry" />
        </mxCell>
        <mxCell id="wTqkR6zDhkNAXDIUtHo6-34" style="rounded=0;orthogonalLoop=1;jettySize=auto;html=1;exitX=1;exitY=0.5;exitDx=0;exitDy=0;entryX=0;entryY=0.5;entryDx=0;entryDy=0;endArrow=none;endFill=0;fontFamily=Verdana;fontSize=12;" parent="1" source="wTqkR6zDhkNAXDIUtHo6-1" target="zX7RAPqxI1raDq1QODeA-1" edge="1">
          <mxGeometry relative="1" as="geometry" />
        </mxCell>
        <mxCell id="wTqkR6zDhkNAXDIUtHo6-41" style="rounded=0;orthogonalLoop=1;jettySize=auto;html=1;exitX=0;exitY=1;exitDx=0;exitDy=0;endArrow=none;endFill=0;fontFamily=Verdana;fontSize=12;" parent="1" source="wTqkR6zDhkNAXDIUtHo6-2" edge="1">
          <mxGeometry relative="1" as="geometry">
            <mxPoint x="760" y="270" as="targetPoint" />
          </mxGeometry>
        </mxCell>
        <mxCell id="wTqkR6zDhkNAXDIUtHo6-2" value="overview" style="ellipse;whiteSpace=wrap;html=1;align=center;fontSize=12;fontFamily=Verdana;fillColor=#dae8fc;strokeColor=#6c8ebf;" parent="1" vertex="1">
          <mxGeometry x="765" y="160" width="80" height="40" as="geometry" />
        </mxCell>
        <mxCell id="wTqkR6zDhkNAXDIUtHo6-45" style="rounded=0;orthogonalLoop=1;jettySize=auto;html=1;exitX=0;exitY=1;exitDx=0;exitDy=0;entryX=0.75;entryY=0;entryDx=0;entryDy=0;endArrow=none;endFill=0;fontFamily=Verdana;fontSize=12;" parent="1" source="wTqkR6zDhkNAXDIUtHo6-3" target="zX7RAPqxI1raDq1QODeA-1" edge="1">
          <mxGeometry relative="1" as="geometry" />
        </mxCell>
        <mxCell id="wTqkR6zDhkNAXDIUtHo6-3" value="popularity" style="ellipse;whiteSpace=wrap;html=1;align=center;fontSize=12;fontFamily=Verdana;fillColor=#dae8fc;strokeColor=#6c8ebf;" parent="1" vertex="1">
          <mxGeometry x="820" y="190" width="90" height="40" as="geometry" />
        </mxCell>
        <mxCell id="wTqkR6zDhkNAXDIUtHo6-44" style="rounded=0;orthogonalLoop=1;jettySize=auto;html=1;exitX=1;exitY=1;exitDx=0;exitDy=0;entryX=0.25;entryY=0;entryDx=0;entryDy=0;endArrow=none;endFill=0;fontFamily=Verdana;fontSize=12;" parent="1" source="wTqkR6zDhkNAXDIUtHo6-4" target="zX7RAPqxI1raDq1QODeA-1" edge="1">
          <mxGeometry relative="1" as="geometry" />
        </mxCell>
        <mxCell id="wTqkR6zDhkNAXDIUtHo6-4" value="release_year" style="ellipse;whiteSpace=wrap;html=1;align=center;fontSize=12;fontFamily=Verdana;fillColor=#dae8fc;strokeColor=#6c8ebf;" parent="1" vertex="1">
          <mxGeometry x="610" y="190" width="90" height="40" as="geometry" />
        </mxCell>
        <mxCell id="wTqkR6zDhkNAXDIUtHo6-43" style="rounded=0;orthogonalLoop=1;jettySize=auto;html=1;exitX=0;exitY=1;exitDx=0;exitDy=0;entryX=1;entryY=0;entryDx=0;entryDy=0;endArrow=none;endFill=0;fontFamily=Verdana;fontSize=12;" parent="1" source="wTqkR6zDhkNAXDIUtHo6-5" target="zX7RAPqxI1raDq1QODeA-1" edge="1">
          <mxGeometry relative="1" as="geometry" />
        </mxCell>
        <mxCell id="wTqkR6zDhkNAXDIUtHo6-5" value="votes_avg" style="ellipse;whiteSpace=wrap;html=1;align=center;fontSize=12;fontFamily=Verdana;fillColor=#dae8fc;strokeColor=#6c8ebf;" parent="1" vertex="1">
          <mxGeometry x="840" y="230" width="90" height="40" as="geometry" />
        </mxCell>
        <mxCell id="wTqkR6zDhkNAXDIUtHo6-35" style="rounded=0;orthogonalLoop=1;jettySize=auto;html=1;exitX=0;exitY=0.5;exitDx=0;exitDy=0;entryX=1;entryY=0.5;entryDx=0;entryDy=0;endArrow=none;endFill=0;fontFamily=Verdana;fontSize=12;" parent="1" source="wTqkR6zDhkNAXDIUtHo6-6" target="zX7RAPqxI1raDq1QODeA-1" edge="1">
          <mxGeometry relative="1" as="geometry" />
        </mxCell>
        <mxCell id="wTqkR6zDhkNAXDIUtHo6-40" style="rounded=0;orthogonalLoop=1;jettySize=auto;html=1;exitX=1;exitY=1;exitDx=0;exitDy=0;entryX=0.5;entryY=0;entryDx=0;entryDy=0;endArrow=none;endFill=0;fontFamily=Verdana;fontSize=12;" parent="1" source="wTqkR6zDhkNAXDIUtHo6-7" target="zX7RAPqxI1raDq1QODeA-1" edge="1">
          <mxGeometry relative="1" as="geometry" />
        </mxCell>
        <mxCell id="wTqkR6zDhkNAXDIUtHo6-7" value="runtime" style="ellipse;whiteSpace=wrap;html=1;align=center;fontSize=12;fontFamily=Verdana;fillColor=#dae8fc;strokeColor=#6c8ebf;" parent="1" vertex="1">
          <mxGeometry x="675" y="160" width="80" height="40" as="geometry" />
        </mxCell>
        <mxCell id="YqH8jDD1aWY3Eqng-mzv-28" value="genre" style="rounded=1;arcSize=10;whiteSpace=wrap;html=1;align=center;fontSize=14;fontFamily=Verdana;fillColor=#ffe6cc;strokeColor=#d79b00;fontStyle=1" vertex="1" parent="1">
          <mxGeometry x="460" y="430" width="100" height="40" as="geometry" />
        </mxCell>
        <mxCell id="YqH8jDD1aWY3Eqng-mzv-29" style="rounded=0;orthogonalLoop=1;jettySize=auto;html=1;exitX=0.5;exitY=0;exitDx=0;exitDy=0;entryX=0.25;entryY=1;entryDx=0;entryDy=0;endArrow=none;endFill=0;fontFamily=Verdana;" edge="1" parent="1" source="YqH8jDD1aWY3Eqng-mzv-30" target="YqH8jDD1aWY3Eqng-mzv-28">
          <mxGeometry relative="1" as="geometry" />
        </mxCell>
        <mxCell id="YqH8jDD1aWY3Eqng-mzv-30" value="genre_id" style="ellipse;whiteSpace=wrap;html=1;align=center;fontStyle=5;fontFamily=Verdana;fontSize=12;fillColor=#dae8fc;strokeColor=#6c8ebf;" vertex="1" parent="1">
          <mxGeometry x="415" y="480" width="90" height="40" as="geometry" />
        </mxCell>
        <mxCell id="YqH8jDD1aWY3Eqng-mzv-31" style="rounded=0;orthogonalLoop=1;jettySize=auto;html=1;exitX=0.5;exitY=0;exitDx=0;exitDy=0;entryX=0.75;entryY=1;entryDx=0;entryDy=0;endArrow=none;endFill=0;fontStyle=0;fontFamily=Verdana;" edge="1" parent="1" source="YqH8jDD1aWY3Eqng-mzv-32" target="YqH8jDD1aWY3Eqng-mzv-28">
          <mxGeometry relative="1" as="geometry" />
        </mxCell>
        <mxCell id="YqH8jDD1aWY3Eqng-mzv-32" value="genre_name" style="ellipse;whiteSpace=wrap;html=1;align=center;fontStyle=0;fontFamily=Verdana;fontSize=12;fillColor=#dae8fc;strokeColor=#6c8ebf;" vertex="1" parent="1">
          <mxGeometry x="515" y="480" width="90" height="40" as="geometry" />
        </mxCell>
        <mxCell id="YqH8jDD1aWY3Eqng-mzv-6" value="keyword" style="rounded=1;arcSize=10;whiteSpace=wrap;html=1;align=center;fontSize=14;fontFamily=Verdana;fillColor=#ffe6cc;strokeColor=#d79b00;fontStyle=1" vertex="1" parent="1">
          <mxGeometry x="709.75" y="430" width="100" height="40" as="geometry" />
        </mxCell>
        <mxCell id="YqH8jDD1aWY3Eqng-mzv-11" value="keyword_id" style="ellipse;whiteSpace=wrap;html=1;align=center;fontStyle=5;fontFamily=Verdana;fontSize=12;fillColor=#dae8fc;strokeColor=#6c8ebf;" vertex="1" parent="1">
          <mxGeometry x="655" y="480" width="100" height="40" as="geometry" />
        </mxCell>
        <mxCell id="YqH8jDD1aWY3Eqng-mzv-12" value="keyword_name" style="ellipse;whiteSpace=wrap;html=1;align=center;fontStyle=0;fontFamily=Verdana;fontSize=12;fillColor=#dae8fc;strokeColor=#6c8ebf;" vertex="1" parent="1">
          <mxGeometry x="765" y="480" width="100" height="40" as="geometry" />
        </mxCell>
        <mxCell id="YqH8jDD1aWY3Eqng-mzv-14" style="rounded=0;orthogonalLoop=1;jettySize=auto;html=1;exitX=0.5;exitY=0;exitDx=0;exitDy=0;entryX=0.25;entryY=1;entryDx=0;entryDy=0;endArrow=none;endFill=0;fontFamily=Verdana;" edge="1" parent="1" source="YqH8jDD1aWY3Eqng-mzv-11" target="YqH8jDD1aWY3Eqng-mzv-6">
          <mxGeometry relative="1" as="geometry" />
        </mxCell>
        <mxCell id="YqH8jDD1aWY3Eqng-mzv-15" style="rounded=0;orthogonalLoop=1;jettySize=auto;html=1;exitX=0.5;exitY=0;exitDx=0;exitDy=0;entryX=0.75;entryY=1;entryDx=0;entryDy=0;endArrow=none;endFill=0;fontStyle=0;fontFamily=Verdana;" edge="1" parent="1" source="YqH8jDD1aWY3Eqng-mzv-12" target="YqH8jDD1aWY3Eqng-mzv-6">
          <mxGeometry relative="1" as="geometry" />
        </mxCell>
        <mxCell id="YqH8jDD1aWY3Eqng-mzv-16" value="person" style="rounded=1;arcSize=10;whiteSpace=wrap;html=1;align=center;fontSize=14;fontFamily=Verdana;fillColor=#ffe6cc;strokeColor=#d79b00;fontStyle=1" vertex="1" parent="1">
          <mxGeometry x="959" y="430" width="100" height="40" as="geometry" />
        </mxCell>
        <mxCell id="YqH8jDD1aWY3Eqng-mzv-52" style="rounded=0;orthogonalLoop=1;jettySize=auto;html=1;exitX=1;exitY=0.5;exitDx=0;exitDy=0;entryX=0;entryY=0.5;entryDx=0;entryDy=0;endArrow=none;endFill=0;fontFamily=Verdana;" edge="1" parent="1" source="YqH8jDD1aWY3Eqng-mzv-27" target="YqH8jDD1aWY3Eqng-mzv-16">
          <mxGeometry relative="1" as="geometry" />
        </mxCell>
        <mxCell id="YqH8jDD1aWY3Eqng-mzv-27" value="person_id" style="ellipse;whiteSpace=wrap;html=1;align=center;fontStyle=5;fontFamily=Verdana;fontSize=12;fillColor=#dae8fc;strokeColor=#6c8ebf;" vertex="1" parent="1">
          <mxGeometry x="853" y="430" width="90" height="40" as="geometry" />
        </mxCell>
        <mxCell id="YqH8jDD1aWY3Eqng-mzv-54" style="rounded=0;orthogonalLoop=1;jettySize=auto;html=1;exitX=0.5;exitY=0;exitDx=0;exitDy=0;entryX=0.25;entryY=1;entryDx=0;entryDy=0;endArrow=none;endFill=0;fontFamily=Verdana;" edge="1" parent="1" source="YqH8jDD1aWY3Eqng-mzv-33" target="YqH8jDD1aWY3Eqng-mzv-16">
          <mxGeometry relative="1" as="geometry" />
        </mxCell>
        <mxCell id="YqH8jDD1aWY3Eqng-mzv-33" value="person_name" style="ellipse;whiteSpace=wrap;html=1;align=center;fontStyle=0;fontFamily=Verdana;fontSize=12;fillColor=#dae8fc;strokeColor=#6c8ebf;" vertex="1" parent="1">
          <mxGeometry x="911" y="480" width="90" height="40" as="geometry" />
        </mxCell>
        <mxCell id="YqH8jDD1aWY3Eqng-mzv-55" style="rounded=0;orthogonalLoop=1;jettySize=auto;html=1;exitX=0.5;exitY=0;exitDx=0;exitDy=0;entryX=0.75;entryY=1;entryDx=0;entryDy=0;endArrow=none;endFill=0;fontFamily=Verdana;" edge="1" parent="1" source="YqH8jDD1aWY3Eqng-mzv-34" target="YqH8jDD1aWY3Eqng-mzv-16">
          <mxGeometry relative="1" as="geometry" />
        </mxCell>
        <mxCell id="YqH8jDD1aWY3Eqng-mzv-34" value="birthday" style="ellipse;whiteSpace=wrap;html=1;align=center;fontStyle=0;fontFamily=Verdana;fontSize=12;fillColor=#dae8fc;strokeColor=#6c8ebf;" vertex="1" parent="1">
          <mxGeometry x="1008" y="480" width="90" height="40" as="geometry" />
        </mxCell>
        <mxCell id="YqH8jDD1aWY3Eqng-mzv-53" style="rounded=0;orthogonalLoop=1;jettySize=auto;html=1;exitX=0;exitY=0.5;exitDx=0;exitDy=0;entryX=1;entryY=0.5;entryDx=0;entryDy=0;endArrow=none;endFill=0;fontFamily=Verdana;" edge="1" parent="1" source="YqH8jDD1aWY3Eqng-mzv-50" target="YqH8jDD1aWY3Eqng-mzv-16">
          <mxGeometry relative="1" as="geometry" />
        </mxCell>
        <mxCell id="YqH8jDD1aWY3Eqng-mzv-50" value="role" style="ellipse;whiteSpace=wrap;html=1;align=center;fontStyle=5;fontFamily=Verdana;fontSize=12;fillColor=#dae8fc;strokeColor=#6c8ebf;" vertex="1" parent="1">
          <mxGeometry x="1078" y="430" width="90" height="40" as="geometry" />
        </mxCell>
      </root>
    </mxGraphModel>
  </diagram>
</mxfile>
